# xmcd CD database file
#
# Track frame offsets:
#	150
#	23525
#	41672
#
# Disc length: 865 seconds
#
# Revision: 0
# Processed by: cddbd v1.5.1PL0 Copyright (c) Steve Scherf et al.
# Submitted via: CDex 1.51
#
DISCID=18035f03
DTITLE=FEEL - GLOWING - NO BRAIN
DYEAR=1997
DGENRE=JPop
TTITLE0=GLOWING
TTITLE1=NO BRAIN
TTITLE2=GLOWING [Off vocal Version]
EXTD=YEAR: 1997
EXTT0=
EXTT1=
EXTT2=
PLAYORDER=
